<?xml version="1.0" standalone="no"?>
<svg width="64" height="64" viewBox="0 0 384 384" version="1.1" xmlns="http://www.w3.org/2000/svg">
  <path d="M238 129l2 2l11 -12l-2 -2c-16 -14 -36 -21 -57 -21c-45 0 -82 36 -87 78h-30l38 50l39 -50h-31c5 -33 35 -62 71 -62c17 0 33 6 46 17zM252 249c16 -14 25 -37 27 -57h30l-38 -51l-39 51h31c-5 35 -35 64 -71 64c-17 0 -33 -6 -46 -17l-2 -2l-11 12l2 2 c16 14 36 21 57 21c22 0 44 -8 60 -23zM354 288c18 0 30 -14 30 -31v-176c0 -17 -12 -33 -30 -33h-320c-18 0 -34 16 -34 33v176c0 17 16 31 34 31h13v16h34v-16h13c32 36 43 48 55 48h88c12 0 23 -12 55 -48h62zM368 81v176c0 9 -5 15 -14 15h-62h-6s-4 1 -6 3s-6 8 -9 11 c-12 13 -21 24 -27 30c-5 5 -7 4 -7 4h-88s-1 0 -6 -4c-6 -5 -15 -14 -26 -27c-3 -4 -8 -11 -11 -14s-4 -3 -6 -3h-6h-60c-9 0 -18 -7 -18 -15v-176c0 -9 9 -17 18 -17h320c8 0 14 8 14 17z" transform="matrix(1,0,0,-1,0,384)"/>
</svg>